<svg width="56" height="56" viewBox="0 0 56 56" fill="none" xmlns="http://www.w3.org/2000/svg">
<path d="M6 36V30.5616L8.09325 30.0382C8.61046 29.9089 9.0966 29.6775 9.52311 29.3577L16.6667 24L31.3591 24L37.5132 28.3958C37.9414 28.7017 38.4259 28.9201 38.9387 29.0384L50 31.591V36H47V38H50C51.1046 38 52 37.1046 52 36V31.591C52 30.6597 51.3572 29.8517 50.4497 29.6422L39.3884 27.0896C39.132 27.0305 38.8898 26.9213 38.6756 26.7683L32.5215 22.3725C32.1823 22.1302 31.7759 22 31.3591 22H16.6667C16.2339 22 15.8129 22.1404 15.4667 22.4L8.32311 27.7577C8.10985 27.9176 7.86678 28.0333 7.60818 28.098L5.51493 28.6213C4.62459 28.8439 4 29.6438 4 30.5616V36C4 37.1046 4.89543 38 6 38H10V36H6Z" fill="#2B6BF3"/>
<path d="M21 36V38H40V36H21Z" fill="#2B6BF3"/>
<path fill-rule="evenodd" clip-rule="evenodd" d="M13.5 39C14.8807 39 16 37.8807 16 36.5C16 35.1193 14.8807 34 13.5 34C12.1193 34 11 35.1193 11 36.5C11 37.8807 12.1193 39 13.5 39ZM13.5 41C15.9853 41 18 38.9853 18 36.5C18 34.0147 15.9853 32 13.5 32C11.0147 32 9 34.0147 9 36.5C9 38.9853 11.0147 41 13.5 41Z" fill="#2B6BF3"/>
<path fill-rule="evenodd" clip-rule="evenodd" d="M43.5 39C44.8807 39 46 37.8807 46 36.5C46 35.1193 44.8807 34 43.5 34C42.1193 34 41 35.1193 41 36.5C41 37.8807 42.1193 39 43.5 39ZM43.5 41C45.9853 41 48 38.9853 48 36.5C48 34.0147 45.9853 32 43.5 32C41.0147 32 39 34.0147 39 36.5C39 38.9853 41.0147 41 43.5 41Z" fill="#2B6BF3"/>
<path d="M18 12C17.9983 11.5 18.4983 11 18.9983 11C18.9983 11 26.9983 11 27.0034 11.0029C27.4983 11 27.9983 11.5 27.9983 11.9957V19.0001C27.9995 19.4974 27.5 20.0001 27.0034 19.9961L18.9983 20.0001C18.4983 20.0001 17.9983 19.5 18 19.0001V12ZM20.001 13.0016C19.9992 14.6667 19.9998 16.3317 20.001 17.9974C21.9989 17.9968 23.9968 18.003 25.9947 17.9943C26.0029 16.3305 25.9979 14.6667 25.9972 13.0029C25.3317 12.9985 24.6661 13.001 24.0006 13.0016C23.9975 14.0006 24.0025 14.9997 23.9987 15.9987C23.3332 15.9981 22.6676 16.005 22.0021 15.9968C21.9908 14.9997 22.0083 14.0019 21.9952 13.0047C21.3303 12.9941 20.666 13.0029 20.001 13.0016Z" fill="#FFDD2D"/>
</svg>
