<svg width="100" height="84" viewBox="0 0 100 84" fill="none" xmlns="http://www.w3.org/2000/svg">
<path d="M68 17C66.3437 17 65 18.3428 65 19.9999C65 21.6562 66.3437 22.9999 68 22.9999C69.6563 22.9999 71 21.6562 71 19.9999C71 18.3428 69.6563 17 68 17ZM68 20.9998C67.4471 20.9998 67.0001 20.5516 67.0001 19.9999C67.0001 19.447 67.4471 19.0001 68 19.0001C68.5529 19.0001 68.9999 19.4473 68.9999 19.9999C68.9999 20.5516 68.5529 20.9998 68 20.9998Z" fill="#2B6BF3"/>
<path d="M67.7342 35.6835L62.4139 41L61 39.5858L66.3203 34.2679L67.7342 35.6835Z" fill="#2B6BF3"/>
<path d="M62.9998 32.0002H65V29.8289L67.0001 27.8279V32.8282L71 36.8283V41H73.0002V36.9999C73.0002 36.4503 72.6816 35.6814 72.2931 35.2932L68.9999 31.9981V24.9999H67.0001L63.7069 28.2926C63.3181 28.6811 62.9998 29.45 62.9998 29.9996V32.0002Z" fill="#2B6BF3"/>
<path d="M72 31H77L78 29H72.5L70 26V28.5L72 31Z" fill="#2B6BF3"/>
<path d="M74 20C73.9983 19.5 74.4983 19 74.9983 19C74.9983 19 82.9983 19 83.0034 19.0029C83.4983 19 83.9983 19.5 83.9983 19.9957V27.0001C83.9995 27.4974 83.5 28.0001 83.0034 27.9961L74.9983 28.0001C74.4983 28.0001 73.9983 27.5 74 27.0001V20ZM76.001 21.0016C75.9992 22.6667 75.9998 24.3317 76.001 25.9974C77.9989 25.9968 79.9968 26.003 81.9947 25.9943C82.0029 24.3305 81.9979 22.6667 81.9972 21.0029C81.3317 20.9985 80.6661 21.001 80.0006 21.0016C79.9975 22.0006 80.0025 22.9997 79.9987 23.9987C79.3332 23.9981 78.6676 24.005 78.0021 23.9968C77.9908 22.9997 78.0083 22.0019 77.9952 21.0047C77.3303 20.9941 76.666 21.0029 76.001 21.0016Z" fill="#FFDD2D"/>
<path d="M39.9992 28.9982C39.5447 29.0002 39.0919 29.0539 38.6496 29.1582L36.5003 23.9993H38.9995V24.9991H40.9988V22.9996C40.9988 22.7344 40.8935 22.4801 40.706 22.2926C40.5186 22.1051 40.2643 21.9998 39.9992 21.9998H35.0008C34.837 22.0006 34.676 22.0416 34.5318 22.1192C34.3877 22.1969 34.2648 22.3087 34.174 22.445C34.0831 22.5812 34.0272 22.7377 34.011 22.9006C33.9948 23.0636 34.0188 23.228 34.0811 23.3795L34.7508 24.9991H28.003L27.3832 22.9996H29.0027V21H23.0046V22.9996H25.2639L26.0736 25.619L24.0043 29.3481C22.8443 28.9364 21.5857 28.8916 20.3994 29.2197C19.213 29.5478 18.1563 30.2329 17.3727 31.1822C16.589 32.1315 16.1164 33.2989 16.0189 34.526C15.9213 35.7532 16.2037 36.9806 16.8275 38.0418C17.4514 39.1029 18.3866 39.9464 19.5062 40.4578C20.6259 40.9692 21.8757 41.1238 23.0862 40.9005C24.2966 40.6772 25.4091 40.0868 26.2726 39.2096C27.1361 38.3323 27.7088 37.2106 27.913 35.9967H30.0024C30.167 35.9958 30.3289 35.9543 30.4737 35.8758C30.6184 35.7973 30.7415 35.6843 30.8321 35.5468L35.9505 27.8685L36.8102 29.918C35.5862 30.6873 34.6813 31.8729 34.2618 33.2564C33.8424 34.64 33.9367 36.1285 34.5274 37.4481C35.1181 38.7676 36.1655 39.8294 37.4768 40.4381C38.7881 41.0467 40.275 41.1613 41.664 40.7606C43.053 40.36 44.2506 39.4712 45.0364 38.2577C45.8222 37.0441 46.1434 35.5876 45.9408 34.1561C45.7382 32.7246 45.0254 31.4145 43.9337 30.4668C42.842 29.5191 41.4448 28.9976 39.9992 28.9982ZM28.5828 26.9987H34.131L30.3323 32.6874L28.5828 26.9987ZM26.8834 28.2684L28.6528 33.9971H27.913C27.6658 32.5461 26.8937 31.2366 25.7437 30.3179L26.8834 28.2684ZM24.754 32.1075C25.2926 32.6218 25.6769 33.2762 25.8637 33.9971H23.7044L24.754 32.1075ZM22.0049 38.996C20.9444 38.996 19.9273 38.5747 19.1774 37.8247C18.4275 37.0747 18.0062 36.0575 18.0062 34.9969C18.0062 33.9363 18.4275 32.9191 19.1774 32.1691C19.9273 31.4191 20.9444 30.9978 22.0049 30.9978C22.3427 31.002 22.6786 31.049 23.0046 31.1377L21.1352 34.507C21.0498 34.659 21.0056 34.8307 21.007 35.0051C21.0084 35.1795 21.0554 35.3504 21.1433 35.501C21.2313 35.6516 21.357 35.7766 21.5082 35.8635C21.6593 35.9505 21.8306 35.9964 22.0049 35.9967H25.8637C25.6426 36.853 25.144 37.6118 24.4458 38.1545C23.7476 38.6972 22.8892 38.9931 22.0049 38.996ZM39.9992 38.996C39.1666 38.9899 38.3568 38.7241 37.6826 38.2356C37.0084 37.7471 36.5034 37.0604 36.2382 36.2711C35.9729 35.4819 35.9606 34.6296 36.2029 33.833C36.4452 33.0364 36.9301 32.3354 37.5899 31.8276L39.0695 35.3868L40.9189 34.617L39.4393 31.0578C39.6243 31.0246 39.8114 31.0046 39.9992 30.9978C41.0597 30.9978 42.0768 31.4191 42.8267 32.1691C43.5766 32.9191 43.9979 33.9363 43.9979 34.9969C43.9979 36.0575 43.5766 37.0747 42.8267 37.8247C42.0768 38.5747 41.0597 38.996 39.9992 38.996Z" fill="#2B6BF3"/>
<path d="M58.0613 9L59 9.25286L48.9387 47L48 46.7471L58.0613 9Z" fill="#C2D2F4"/>
<path d="M58.0613 9L59 9.25286L48.9387 47L48 46.7471L58.0613 9Z" fill="#B7C6E7"/>
</svg>
