<svg width="56" height="56" viewBox="0 0 56 56" fill="none" xmlns="http://www.w3.org/2000/svg">
<path fill-rule="evenodd" clip-rule="evenodd" d="M18 39C19.1046 39 20 38.1046 20 37C20 35.8954 19.1046 35 18 35C16.8954 35 16 35.8954 16 37C16 38.1046 16.8954 39 18 39ZM18 41C20.2091 41 22 39.2091 22 37C22 34.7909 20.2091 33 18 33C15.7909 33 14 34.7909 14 37C14 39.2091 15.7909 41 18 41Z" fill="#2B6BF3"/>
<path fill-rule="evenodd" clip-rule="evenodd" d="M39 39C40.1046 39 41 38.1046 41 37C41 35.8954 40.1046 35 39 35C37.8954 35 37 35.8954 37 37C37 38.1046 37.8954 39 39 39ZM39 41C41.2091 41 43 39.2091 43 37C43 34.7909 41.2091 33 39 33C36.7909 33 35 34.7909 35 37C35 39.2091 36.7909 41 39 41Z" fill="#2B6BF3"/>
<path d="M29 30H11L11 36H14V38H11C9.89543 38 9 37.1046 9 36V30C9 28.8954 9.89543 28 11 28H27V17C27 15.8954 27.8954 15 29 15H39.2639C40.0215 15 40.714 15.428 41.0528 16.1056L46.7889 27.5777C46.9277 27.8554 47 28.1616 47 28.4721V36C47 37.1046 46.1046 38 45 38H43V36H45V28.4721L39.2639 17L29 17V30Z" fill="#2B6BF3"/>
<path d="M35 36H25V38H35V36Z" fill="#2B6BF3"/>
<path d="M15 18C14.9983 17.5 15.4983 17 15.9983 17C15.9983 17 23.9983 17 24.0034 17.0029C24.4983 17 24.9983 17.5 24.9983 17.9957V25.0001C24.9995 25.4974 24.5 26.0001 24.0034 25.9961L15.9983 26.0001C15.4983 26.0001 14.9983 25.5 15 25.0001V18ZM17.001 19.0016C16.9992 20.6667 16.9998 22.3317 17.001 23.9974C18.9989 23.9968 20.9968 24.003 22.9947 23.9943C23.0029 22.3305 22.9979 20.6667 22.9972 19.0029C22.3317 18.9985 21.6661 19.001 21.0006 19.0016C20.9975 20.0006 21.0025 20.9997 20.9987 21.9987C20.3332 21.9981 19.6676 22.005 19.0021 21.9968C18.9908 20.9997 19.0083 20.0019 18.9952 19.0047C18.3303 18.9941 17.666 19.0029 17.001 19.0016Z" fill="#FFDD2D"/>
</svg>
